<mxfile host="app.diagrams.net" agent="Mozilla/5.0 (Windows NT 10.0; Win64; x64) AppleWebKit/537.36 (KHTML, like Gecko) Chrome/131.0.0.0 Safari/537.36" version="25.0.1">
  <diagram name="Страница — 1" id="mrzqCdEL7znpj-ONTkCO">
    <mxGraphModel dx="1750" dy="870" grid="1" gridSize="10" guides="1" tooltips="1" connect="1" arrows="1" fold="1" page="1" pageScale="1" pageWidth="827" pageHeight="1169" math="0" shadow="0">
      <root>
        <mxCell id="0" />
        <mxCell id="1" parent="0" />
        <mxCell id="YrhgBRHA7Ejs3ZpZEdUl-11" style="edgeStyle=none;curved=1;rounded=0;orthogonalLoop=1;jettySize=auto;html=1;exitX=0.5;exitY=1;exitDx=0;exitDy=0;entryX=0.5;entryY=0;entryDx=0;entryDy=0;fontSize=12;startSize=8;endSize=8;" parent="1" target="YrhgBRHA7Ejs3ZpZEdUl-2" edge="1">
          <mxGeometry relative="1" as="geometry">
            <mxPoint x="405" y="150" as="sourcePoint" />
          </mxGeometry>
        </mxCell>
        <mxCell id="YrhgBRHA7Ejs3ZpZEdUl-12" style="edgeStyle=none;curved=1;rounded=0;orthogonalLoop=1;jettySize=auto;html=1;exitX=0.5;exitY=1;exitDx=0;exitDy=0;entryX=0.5;entryY=0;entryDx=0;entryDy=0;fontSize=12;startSize=8;endSize=8;" parent="1" source="YrhgBRHA7Ejs3ZpZEdUl-2" target="YrhgBRHA7Ejs3ZpZEdUl-3" edge="1">
          <mxGeometry relative="1" as="geometry" />
        </mxCell>
        <mxCell id="YrhgBRHA7Ejs3ZpZEdUl-2" value="&lt;font style=&quot;font-size: 14px;&quot;&gt;int i = 0; i &amp;lt; fuzzySet.size(); i++&lt;/font&gt;" style="shape=loopLimit;whiteSpace=wrap;html=1;" parent="1" vertex="1">
          <mxGeometry x="300" y="190" width="210" height="60" as="geometry" />
        </mxCell>
        <mxCell id="YrhgBRHA7Ejs3ZpZEdUl-5" style="edgeStyle=none;curved=1;rounded=0;orthogonalLoop=1;jettySize=auto;html=1;exitX=0.5;exitY=1;exitDx=0;exitDy=0;entryX=0.5;entryY=0;entryDx=0;entryDy=0;fontSize=12;startSize=8;endSize=8;" parent="1" source="YrhgBRHA7Ejs3ZpZEdUl-3" edge="1">
          <mxGeometry relative="1" as="geometry">
            <mxPoint x="405" y="460" as="targetPoint" />
          </mxGeometry>
        </mxCell>
        <mxCell id="YrhgBRHA7Ejs3ZpZEdUl-7" value="Да" style="edgeLabel;html=1;align=center;verticalAlign=middle;resizable=0;points=[];fontSize=12;" parent="YrhgBRHA7Ejs3ZpZEdUl-5" vertex="1" connectable="0">
          <mxGeometry x="-0.325" relative="1" as="geometry">
            <mxPoint x="-15" as="offset" />
          </mxGeometry>
        </mxCell>
        <mxCell id="YrhgBRHA7Ejs3ZpZEdUl-13" style="edgeStyle=none;curved=0;rounded=0;orthogonalLoop=1;jettySize=auto;html=1;exitX=1;exitY=0.5;exitDx=0;exitDy=0;entryX=0.5;entryY=1;entryDx=0;entryDy=0;fontSize=12;startSize=8;endSize=8;" parent="1" source="YrhgBRHA7Ejs3ZpZEdUl-3" target="YrhgBRHA7Ejs3ZpZEdUl-9" edge="1">
          <mxGeometry relative="1" as="geometry">
            <Array as="points">
              <mxPoint x="670" y="360" />
              <mxPoint x="670" y="530" />
              <mxPoint x="405" y="530" />
            </Array>
          </mxGeometry>
        </mxCell>
        <mxCell id="YrhgBRHA7Ejs3ZpZEdUl-14" value="Нет" style="edgeLabel;html=1;align=center;verticalAlign=middle;resizable=0;points=[];fontSize=12;" parent="YrhgBRHA7Ejs3ZpZEdUl-13" vertex="1" connectable="0">
          <mxGeometry x="-0.9404" relative="1" as="geometry">
            <mxPoint y="-10" as="offset" />
          </mxGeometry>
        </mxCell>
        <mxCell id="YrhgBRHA7Ejs3ZpZEdUl-3" value="&lt;font style=&quot;font-size: 14px;&quot;&gt;matrix.matr.find(fuzzySet[i].first) == matrix.matr.end()&lt;/font&gt;" style="rhombus;whiteSpace=wrap;html=1;" parent="1" vertex="1">
          <mxGeometry x="177" y="300" width="456" height="120" as="geometry" />
        </mxCell>
        <mxCell id="YrhgBRHA7Ejs3ZpZEdUl-10" style="edgeStyle=none;curved=1;rounded=0;orthogonalLoop=1;jettySize=auto;html=1;exitX=0.5;exitY=0;exitDx=0;exitDy=0;entryX=0.5;entryY=0;entryDx=0;entryDy=0;fontSize=12;startSize=8;endSize=8;" parent="1" source="YrhgBRHA7Ejs3ZpZEdUl-9" edge="1">
          <mxGeometry relative="1" as="geometry">
            <mxPoint x="405" y="670" as="targetPoint" />
          </mxGeometry>
        </mxCell>
        <mxCell id="YrhgBRHA7Ejs3ZpZEdUl-9" value="&lt;font style=&quot;font-size: 14px;&quot;&gt;int i = 0; i &amp;lt; fuzzySet.size(); i++&lt;/font&gt;" style="shape=loopLimit;whiteSpace=wrap;html=1;direction=west;" parent="1" vertex="1">
          <mxGeometry x="300" y="570" width="210" height="60" as="geometry" />
        </mxCell>
        <mxCell id="L_OJJC4P03xfOY-h_yjP-2" value="&lt;span style=&quot;font-size: 14px;&quot;&gt;canConclusion(vector&amp;lt;pair&amp;lt;string,double&amp;gt;&amp;gt;&amp;amp; fuzzySet, Matrix&amp;amp; matrix)&lt;/span&gt;" style="rounded=1;whiteSpace=wrap;html=1;arcSize=50;" parent="1" vertex="1">
          <mxGeometry x="212.5" y="90" width="385" height="60" as="geometry" />
        </mxCell>
        <mxCell id="L_OJJC4P03xfOY-h_yjP-3" value="&lt;span style=&quot;font-size: 14px;&quot;&gt;return true&lt;/span&gt;" style="rounded=1;whiteSpace=wrap;html=1;arcSize=50;" parent="1" vertex="1">
          <mxGeometry x="345" y="670" width="120" height="60" as="geometry" />
        </mxCell>
        <mxCell id="L_OJJC4P03xfOY-h_yjP-4" value="&lt;span style=&quot;font-size: 14px;&quot;&gt;return false&lt;/span&gt;" style="rounded=1;whiteSpace=wrap;html=1;arcSize=50;" parent="1" vertex="1">
          <mxGeometry x="345" y="460" width="120" height="60" as="geometry" />
        </mxCell>
        <mxCell id="fdFqRfH-jrah2P0sJ6bk-1" value="&lt;font style=&quot;font-size: 14px;&quot;&gt;Метод принимает на вход&amp;nbsp;вектор пар,&amp;nbsp;&lt;/font&gt;&lt;div&gt;&lt;font style=&quot;font-size: 14px;&quot;&gt;представляющий нечеткое множество,&amp;nbsp;&lt;/font&gt;&lt;/div&gt;&lt;div&gt;&lt;font style=&quot;font-size: 14px;&quot;&gt;и объект Matrix, содержащий матрицу импликаций;&amp;nbsp;&lt;/font&gt;&lt;/div&gt;&lt;div&gt;&lt;font style=&quot;font-size: 14px;&quot;&gt;на выход&amp;nbsp;логическое значение, указывающее,&amp;nbsp;&lt;/font&gt;&lt;/div&gt;&lt;div&gt;&lt;font style=&quot;font-size: 14px;&quot;&gt;можно ли провести вывод на основе переданной матрицы&lt;/font&gt;&lt;/div&gt;" style="strokeWidth=2;html=1;shape=mxgraph.flowchart.annotation_2;align=left;labelPosition=right;pointerEvents=1;" vertex="1" parent="1">
          <mxGeometry x="680" y="70" width="50" height="100" as="geometry" />
        </mxCell>
        <mxCell id="fdFqRfH-jrah2P0sJ6bk-2" value="" style="endArrow=none;dashed=1;html=1;dashPattern=1 3;strokeWidth=2;rounded=0;exitX=1;exitY=0.5;exitDx=0;exitDy=0;entryX=0;entryY=0.5;entryDx=0;entryDy=0;entryPerimeter=0;" edge="1" parent="1" source="L_OJJC4P03xfOY-h_yjP-2" target="fdFqRfH-jrah2P0sJ6bk-1">
          <mxGeometry width="50" height="50" relative="1" as="geometry">
            <mxPoint x="597.5" y="110" as="sourcePoint" />
            <mxPoint x="647.5" y="60" as="targetPoint" />
          </mxGeometry>
        </mxCell>
      </root>
    </mxGraphModel>
  </diagram>
</mxfile>
